<mxfile host="app.diagrams.net" modified="2023-12-25T13:08:30.629Z" agent="Mozilla/5.0 (Windows NT 10.0; Win64; x64) AppleWebKit/537.36 (KHTML, like Gecko) Chrome/120.0.0.0 Safari/537.36" etag="PMQlyDJViYpy3Xu5B7_r" version="22.1.11" type="github">
  <diagram name="Page-1" id="ifPd2jZcrbUs4LWItZRN">
    <mxGraphModel dx="1434" dy="738" grid="1" gridSize="10" guides="1" tooltips="1" connect="1" arrows="1" fold="1" page="1" pageScale="1" pageWidth="1100" pageHeight="850" math="0" shadow="0">
      <root>
        <mxCell id="0" />
        <mxCell id="1" parent="0" />
        <mxCell id="_XJAfZ-7OYc6tZ29-ibL-2" value="" style="sketch=0;outlineConnect=0;fontColor=#232F3E;gradientColor=none;fillColor=#ED7100;strokeColor=none;dashed=0;verticalLabelPosition=bottom;verticalAlign=top;align=center;html=1;fontSize=12;fontStyle=0;aspect=fixed;pointerEvents=1;shape=mxgraph.aws4.application;" vertex="1" parent="1">
          <mxGeometry x="360" y="350" width="83.96" height="130" as="geometry" />
        </mxCell>
        <mxCell id="_XJAfZ-7OYc6tZ29-ibL-3" value="" style="sketch=0;outlineConnect=0;fontColor=#232F3E;gradientColor=none;fillColor=#C925D1;strokeColor=none;dashed=0;verticalLabelPosition=bottom;verticalAlign=top;align=center;html=1;fontSize=12;fontStyle=0;aspect=fixed;pointerEvents=1;shape=mxgraph.aws4.rds_instance;" vertex="1" parent="1">
          <mxGeometry x="80" y="356" width="124" height="124" as="geometry" />
        </mxCell>
        <mxCell id="_XJAfZ-7OYc6tZ29-ibL-5" value="" style="sketch=0;outlineConnect=0;fontColor=#232F3E;gradientColor=none;fillColor=#7AA116;strokeColor=none;dashed=0;verticalLabelPosition=bottom;verticalAlign=top;align=center;html=1;fontSize=12;fontStyle=0;aspect=fixed;pointerEvents=1;shape=mxgraph.aws4.bucket;" vertex="1" parent="1">
          <mxGeometry x="600" y="360" width="115.38" height="120" as="geometry" />
        </mxCell>
        <mxCell id="_XJAfZ-7OYc6tZ29-ibL-6" value="" style="html=1;verticalLabelPosition=bottom;align=center;labelBackgroundColor=#ffffff;verticalAlign=top;strokeWidth=6;strokeColor=#0080F0;shadow=0;dashed=0;shape=mxgraph.ios7.icons.user;" vertex="1" parent="1">
          <mxGeometry x="880" y="363" width="114" height="114" as="geometry" />
        </mxCell>
        <mxCell id="_XJAfZ-7OYc6tZ29-ibL-7" value="&lt;font color=&quot;#c925d1&quot;&gt;AWS RDS&lt;/font&gt;" style="text;html=1;align=center;verticalAlign=middle;resizable=0;points=[];autosize=1;strokeColor=none;fillColor=none;fontStyle=1;fontColor=#4D4D4D;fontSize=14;" vertex="1" parent="1">
          <mxGeometry x="96" y="490" width="90" height="30" as="geometry" />
        </mxCell>
        <mxCell id="_XJAfZ-7OYc6tZ29-ibL-9" value="&lt;font color=&quot;#ed7100&quot;&gt;AWS ELASTIC BEANSTALK&lt;/font&gt;" style="text;html=1;align=center;verticalAlign=middle;resizable=0;points=[];autosize=1;strokeColor=none;fillColor=none;fontStyle=1;fontColor=#4D4D4D;fontSize=14;" vertex="1" parent="1">
          <mxGeometry x="270" y="490" width="210" height="30" as="geometry" />
        </mxCell>
        <mxCell id="_XJAfZ-7OYc6tZ29-ibL-10" value="&lt;font color=&quot;#7aa116&quot;&gt;AWS S3&lt;/font&gt;" style="text;html=1;align=center;verticalAlign=middle;resizable=0;points=[];autosize=1;strokeColor=none;fillColor=none;fontStyle=1;fontColor=#4D4D4D;fontSize=14;" vertex="1" parent="1">
          <mxGeometry x="617.69" y="490" width="80" height="30" as="geometry" />
        </mxCell>
        <mxCell id="_XJAfZ-7OYc6tZ29-ibL-11" value="&lt;font color=&quot;#0080f0&quot;&gt;USER&lt;/font&gt;" style="text;html=1;align=center;verticalAlign=middle;resizable=0;points=[];autosize=1;strokeColor=none;fillColor=none;fontStyle=1;fontColor=#4D4D4D;fontSize=14;" vertex="1" parent="1">
          <mxGeometry x="907" y="490" width="60" height="30" as="geometry" />
        </mxCell>
        <mxCell id="_XJAfZ-7OYc6tZ29-ibL-12" value="" style="endArrow=classic;startArrow=classic;html=1;rounded=0;spacing=5;strokeColor=#808080;jumpSize=17;strokeWidth=4;" edge="1" parent="1">
          <mxGeometry width="50" height="50" relative="1" as="geometry">
            <mxPoint x="230" y="415" as="sourcePoint" />
            <mxPoint x="330" y="415" as="targetPoint" />
          </mxGeometry>
        </mxCell>
        <mxCell id="_XJAfZ-7OYc6tZ29-ibL-13" value="" style="endArrow=classic;startArrow=classic;html=1;rounded=0;spacing=5;strokeColor=#808080;jumpSize=17;strokeWidth=4;" edge="1" parent="1">
          <mxGeometry width="50" height="50" relative="1" as="geometry">
            <mxPoint x="470" y="414.63" as="sourcePoint" />
            <mxPoint x="570" y="414.63" as="targetPoint" />
          </mxGeometry>
        </mxCell>
        <mxCell id="_XJAfZ-7OYc6tZ29-ibL-14" value="" style="endArrow=classic;startArrow=classic;html=1;rounded=0;spacing=5;strokeColor=#808080;jumpSize=17;strokeWidth=4;" edge="1" parent="1">
          <mxGeometry width="50" height="50" relative="1" as="geometry">
            <mxPoint x="747" y="414.63" as="sourcePoint" />
            <mxPoint x="857" y="415" as="targetPoint" />
          </mxGeometry>
        </mxCell>
        <mxCell id="_XJAfZ-7OYc6tZ29-ibL-16" value="" style="rounded=1;whiteSpace=wrap;html=1;fillColor=none;strokeWidth=6;strokeColor=#999999;" vertex="1" parent="1">
          <mxGeometry x="38" y="289" width="700" height="260" as="geometry" />
        </mxCell>
        <mxCell id="_XJAfZ-7OYc6tZ29-ibL-17" value="" style="outlineConnect=0;dashed=0;verticalLabelPosition=bottom;verticalAlign=top;align=center;html=1;shape=mxgraph.aws3.cloud_2;fillColor=#F58534;gradientColor=none;" vertex="1" parent="1">
          <mxGeometry x="80" y="260" width="50" height="50" as="geometry" />
        </mxCell>
      </root>
    </mxGraphModel>
  </diagram>
</mxfile>
